<svg width="42" height="40" viewBox="0 0 42 40" fill="none" xmlns="http://www.w3.org/2000/svg">
<path d="M40.2187 31.5875C41.3708 29.437 41.981 27.038 41.9964 24.5983C42.0118 22.1587 41.4319 19.7522 40.307 17.5873C39.1821 15.4225 37.5462 13.5647 35.541 12.175C33.5358 10.7854 31.2219 9.90575 28.7999 9.61247C28.0025 7.75254 26.8369 6.0732 25.3734 4.67555C23.9099 3.27789 22.1787 2.19082 20.2841 1.47978C18.3895 0.768737 16.3705 0.448423 14.3488 0.538118C12.3271 0.627814 10.3445 1.12567 8.52027 2.0017C6.69603 2.87774 5.06792 4.11385 3.73395 5.63562C2.39997 7.15739 1.38771 8.93335 0.758108 10.8566C0.128504 12.7798 -0.105428 14.8106 0.0703952 16.8266C0.246219 18.8426 0.828161 20.8023 1.78119 22.5875L0.618691 26.6375C0.483955 27.088 0.473613 27.5666 0.588763 28.0225C0.703912 28.4784 0.940262 28.8946 1.27276 29.2271C1.60527 29.5596 2.02153 29.796 2.47744 29.9111C2.93336 30.0263 3.41193 30.016 3.86244 29.8812L7.91244 28.7187C9.55728 29.5955 11.3498 30.1612 13.1999 30.3875C14.0172 32.3027 15.2242 34.0269 16.7442 35.4501C18.2643 36.8733 20.064 37.9645 22.0288 38.6541C23.9936 39.3437 26.0805 39.6167 28.1566 39.4557C30.2327 39.2946 32.2525 38.7031 34.0874 37.7187L38.1374 38.8812C38.588 39.016 39.0665 39.0263 39.5224 38.9111C39.9784 38.796 40.3946 38.5596 40.7271 38.2271C41.0596 37.8946 41.296 37.4784 41.4111 37.0225C41.5263 36.5666 41.5159 36.088 41.3812 35.6375L40.2187 31.5875ZM37.3312 30.6312C37.2221 30.8019 37.1506 30.9938 37.1215 31.1943C37.0924 31.3947 37.1063 31.5991 37.1624 31.7937L38.3249 35.825L34.2937 34.6625C34.0991 34.6064 33.8947 34.5924 33.6942 34.6215C33.4938 34.6506 33.3018 34.7221 33.1312 34.8312C31.7567 35.6423 30.2346 36.1718 28.6535 36.3892C27.0724 36.6066 25.4638 36.5074 23.9214 36.0973C22.379 35.6873 20.9336 34.9747 19.6691 34.0008C18.4047 33.027 17.3465 31.8115 16.5562 30.425C20.2428 30.032 23.6543 28.2911 26.1356 25.5364C28.6169 22.7817 29.9931 19.2074 29.9999 15.5C29.9957 14.6009 29.9142 13.7038 29.7562 12.8187C32.3876 13.4397 34.7322 14.9312 36.41 17.0514C38.0878 19.1716 39.0004 21.7962 38.9999 24.5C38.9974 26.6556 38.4215 28.7717 37.3312 30.6312V30.6312Z" fill="#7F2D0F"/>
</svg>
