<svg width="18" height="18" viewBox="0 0 18 18" fill="none" xmlns="http://www.w3.org/2000/svg">
<path d="M17.125 8.99997C17.1209 10.985 16.3924 12.9004 15.0762 14.3863C13.76 15.8723 11.9466 16.8267 9.97652 17.0703C9.93255 17.0746 9.88817 17.0698 9.84616 17.0561C9.80415 17.0425 9.76542 17.0203 9.7324 16.9909C9.69939 16.9616 9.6728 16.9257 9.6543 16.8856C9.63581 16.8455 9.62582 16.8019 9.62496 16.7578V10.875H11.5C11.5854 10.8751 11.67 10.8578 11.7485 10.8239C11.827 10.7901 11.8977 10.7406 11.9563 10.6783C12.0149 10.6161 12.0601 10.5425 12.0891 10.4621C12.1181 10.3817 12.1303 10.2962 12.125 10.2109C12.1111 10.0493 12.0365 9.89894 11.9162 9.79019C11.7958 9.68145 11.6387 9.6224 11.4765 9.62497H9.62496V7.74997C9.62496 7.41845 9.75665 7.1005 9.99107 6.86608C10.2255 6.63166 10.5434 6.49997 10.875 6.49997H12.125C12.2104 6.50013 12.295 6.48277 12.3735 6.44895C12.452 6.41512 12.5227 6.36556 12.5813 6.30332C12.6399 6.24108 12.6851 6.16749 12.7141 6.08709C12.7431 6.0067 12.7553 5.92121 12.75 5.8359C12.7361 5.67429 12.6615 5.52394 12.5412 5.41519C12.4208 5.30645 12.2637 5.2474 12.1015 5.24997H10.875C10.2119 5.24997 9.57603 5.51336 9.10719 5.9822C8.63835 6.45104 8.37496 7.08693 8.37496 7.74997V9.62497H6.49996C6.41449 9.6248 6.32989 9.64216 6.2514 9.67599C6.17291 9.70981 6.10219 9.75937 6.04361 9.82161C5.98503 9.88385 5.93984 9.95744 5.91083 10.0378C5.88182 10.1182 5.86961 10.2037 5.87496 10.289C5.88878 10.4506 5.9634 10.601 6.08375 10.7097C6.20409 10.8185 6.36121 10.8775 6.52339 10.875H8.37496V16.7578C8.37518 16.8016 8.36618 16.8449 8.34856 16.8851C8.33094 16.9252 8.30508 16.9611 8.27267 16.9906C8.24026 17.02 8.20201 17.0424 8.16041 17.0561C8.11881 17.0698 8.07479 17.0747 8.03121 17.0703C3.90621 16.5703 0.718706 12.9843 0.882768 8.69528C0.974864 6.57714 1.89125 4.5789 3.43631 3.12708C4.98137 1.67526 7.03272 0.884884 9.15249 0.924649C11.2723 0.964413 13.2925 1.83117 14.782 3.33992C16.2716 4.84866 17.1124 6.87986 17.125 8.99997V8.99997Z" fill="#EBEBEB"/>
</svg>
