<svg width="42" height="42" viewBox="0 0 42 42" fill="none" xmlns="http://www.w3.org/2000/svg">
<path d="M39.3562 16.275C38.6437 15.5438 37.9125 14.775 37.6312 14.1188C37.35 13.4625 37.3687 12.4875 37.35 11.4938C37.3312 9.675 37.2937 7.59375 35.85 6.15C34.4062 4.70625 32.325 4.66875 30.5062 4.65C29.5125 4.63125 28.5 4.6125 27.8812 4.36875C27.2625 4.125 26.4562 3.35625 25.725 2.64375C24.4312 1.40625 22.95 0 21 0C19.05 0 17.5688 1.40625 16.275 2.64375C15.5438 3.35625 14.775 4.0875 14.1188 4.36875C13.4625 4.65 12.4875 4.63125 11.4938 4.65C9.675 4.66875 7.59375 4.70625 6.15 6.15C4.70625 7.59375 4.66875 9.675 4.65 11.4938C4.63125 12.4875 4.6125 13.5 4.36875 14.1188C4.125 14.7375 3.35625 15.5438 2.64375 16.275C1.40625 17.5688 0 19.05 0 21C0 22.95 1.40625 24.4312 2.64375 25.725C3.35625 26.4562 4.0875 27.225 4.36875 27.8812C4.65 28.5375 4.63125 29.5125 4.65 30.5062C4.66875 32.325 4.70625 34.4062 6.15 35.85C7.59375 37.2937 9.675 37.3312 11.4938 37.35C12.4875 37.3687 13.5 37.3875 14.1188 37.6312C14.7375 37.875 15.5438 38.6437 16.275 39.3562C17.5688 40.5937 19.05 42 21 42C22.95 42 24.4312 40.5937 25.725 39.3562C26.4562 38.6437 27.225 37.9125 27.8812 37.6312C28.5375 37.35 29.5125 37.3687 30.5062 37.35C32.325 37.3312 34.4062 37.2937 35.85 35.85C37.2937 34.4062 37.3312 32.325 37.35 30.5062C37.3687 29.5125 37.3875 28.5 37.6312 27.8812C37.875 27.2625 38.6437 26.4562 39.3562 25.725C40.5937 24.4312 42 22.95 42 21C42 19.05 40.5937 17.5688 39.3562 16.275ZM30.2812 17.5875L19.2938 28.0875C19.0097 28.3547 18.6337 28.5024 18.2438 28.5C17.8595 28.5015 17.4897 28.3536 17.2125 28.0875L11.7188 22.8375C11.5664 22.7046 11.4425 22.5422 11.3544 22.3601C11.2664 22.1781 11.2161 21.9801 11.2066 21.7781C11.197 21.5761 11.2284 21.3743 11.2988 21.1847C11.3693 20.9952 11.4773 20.8218 11.6164 20.6751C11.7556 20.5283 11.923 20.4113 12.1085 20.3309C12.2941 20.2505 12.4939 20.2084 12.6962 20.2072C12.8984 20.2061 13.0987 20.2458 13.2852 20.324C13.4717 20.4023 13.6404 20.5174 13.7812 20.6625L18.2438 24.9187L28.2188 15.4125C28.5104 15.158 28.8891 15.0262 29.2758 15.0445C29.6624 15.0628 30.027 15.2298 30.2933 15.5107C30.5596 15.7915 30.7071 16.1644 30.7049 16.5515C30.7026 16.9386 30.5508 17.3098 30.2812 17.5875Z" fill="#008253"/>
</svg>
