<svg width="18" height="16" viewBox="0 0 18 16" fill="none" xmlns="http://www.w3.org/2000/svg">
<path d="M17.1953 3.07026L14.8359 5.42183C14.3672 10.8828 9.75778 15.125 4.24996 15.125C3.11715 15.125 2.17965 14.9453 1.46871 14.5937C0.898402 14.3046 0.664026 14 0.601526 13.9062C0.549815 13.8277 0.516494 13.7385 0.504045 13.6453C0.491596 13.552 0.50034 13.4572 0.529626 13.3679C0.558912 13.2785 0.607985 13.1969 0.673189 13.1291C0.738392 13.0614 0.818046 13.0092 0.906214 12.9765C0.921839 12.9687 2.76559 12.2656 3.9609 10.914C3.21961 10.3862 2.56805 9.74255 2.03121 9.00776C0.960901 7.55464 -0.171911 5.0312 0.507776 1.26558C0.529143 1.15363 0.580346 1.04953 0.655978 0.96427C0.731609 0.879013 0.828862 0.815763 0.937464 0.781201C1.04641 0.745527 1.16307 0.740505 1.27468 0.766686C1.3863 0.792866 1.48856 0.84924 1.57028 0.929639C1.59371 0.960889 4.19528 3.52339 7.37496 4.35151V3.87495C7.37803 3.37941 7.47868 2.88933 7.67115 2.43269C7.86362 1.97605 8.14415 1.56179 8.49673 1.21357C8.8493 0.86535 9.26702 0.589984 9.72601 0.403198C10.185 0.216412 10.6763 0.121864 11.1718 0.124951C11.8222 0.134227 12.4591 0.311812 13.0205 0.640404C13.5818 0.968997 14.0485 1.43739 14.375 1.99995H16.75C16.8734 1.99957 16.9941 2.03571 17.097 2.10384C17.1999 2.17196 17.2803 2.26901 17.3281 2.38276C17.3731 2.49821 17.3845 2.62404 17.361 2.74571C17.3375 2.86737 17.2801 2.9799 17.1953 3.07026V3.07026Z" fill="#EBEBEB"/>
</svg>
