<svg xmlns="http://www.w3.org/2000/svg" width="24" height="24" viewBox="0 0 18 18" fill="none">
<path d="M9 0.875C7.39303 0.875 5.82214 1.35152 4.486 2.24431C3.14985 3.1371 2.10844 4.40605 1.49348 5.8907C0.87852 7.37535 0.717618 9.00901 1.03112 10.5851C1.34463 12.1612 2.11846 13.6089 3.25476 14.7452C4.39106 15.8815 5.8388 16.6554 7.4149 16.9689C8.99099 17.2824 10.6247 17.1215 12.1093 16.5065C13.594 15.8916 14.8629 14.8502 15.7557 13.514C16.6485 12.1779 17.125 10.607 17.125 9C17.1209 6.84638 16.2635 4.78216 14.7407 3.25932C13.2178 1.73648 11.1536 0.87913 9 0.875ZM9 14C8.81458 14 8.63333 13.945 8.47916 13.842C8.32499 13.739 8.20482 13.5926 8.13387 13.4213C8.06291 13.25 8.04434 13.0615 8.08052 12.8796C8.11669 12.6977 8.20598 12.5307 8.33709 12.3996C8.4682 12.2685 8.63525 12.1792 8.81711 12.143C8.99896 12.1068 9.18746 12.1254 9.35877 12.1964C9.53007 12.2673 9.67649 12.3875 9.77951 12.5417C9.88252 12.6958 9.9375 12.8771 9.9375 13.0625C9.9375 13.3111 9.83873 13.5496 9.66292 13.7254C9.4871 13.9012 9.24864 14 9 14ZM9.625 10.1797V10.25C9.625 10.4158 9.55916 10.5747 9.44195 10.6919C9.32474 10.8092 9.16576 10.875 9 10.875C8.83424 10.875 8.67527 10.8092 8.55806 10.6919C8.44085 10.5747 8.375 10.4158 8.375 10.25V9.625C8.375 9.45924 8.44085 9.30027 8.55806 9.18306C8.67527 9.06585 8.83424 9 9 9C9.30904 9 9.61113 8.90836 9.86808 8.73667C10.125 8.56498 10.3253 8.32095 10.4436 8.03544C10.5618 7.74993 10.5928 7.43577 10.5325 7.13267C10.4722 6.82958 10.3234 6.55117 10.1049 6.33265C9.88634 6.11413 9.60793 5.96531 9.30483 5.90502C9.00174 5.84473 8.68757 5.87568 8.40206 5.99394C8.11655 6.1122 7.87252 6.31247 7.70083 6.56942C7.52914 6.82637 7.4375 7.12847 7.4375 7.4375C7.4375 7.60326 7.37166 7.76223 7.25445 7.87944C7.13724 7.99665 6.97826 8.0625 6.8125 8.0625C6.64674 8.0625 6.48777 7.99665 6.37056 7.87944C6.25335 7.76223 6.1875 7.60326 6.1875 7.4375C6.18751 6.90805 6.33695 6.38936 6.61865 5.94107C6.90036 5.49279 7.30287 5.13312 7.77991 4.90344C8.25694 4.67376 8.78912 4.58339 9.31523 4.64273C9.84134 4.70207 10.34 4.90871 10.7539 5.23888C11.1678 5.56905 11.4801 6.00934 11.6549 6.50911C11.8296 7.00888 11.8598 7.54784 11.7418 8.06398C11.6239 8.58013 11.3627 9.05251 10.9882 9.42678C10.6137 9.80106 10.1412 10.062 9.625 10.1797Z" fill="#474747"/>
</svg>