<svg width="42" height="36" viewBox="0 0 35 24" fill="none" xmlns="http://www.w3.org/2000/svg">
<rect width="35" height="24" rx="4" fill="#F5F5F5"/>
<path d="M26 4.5H8C7.60218 4.5 7.22064 4.65804 6.93934 4.93934C6.65804 5.22064 6.5 5.60218 6.5 6V9.08437V17.9906C6.5 18.3884 6.65804 18.77 6.93934 19.0513C7.22064 19.3326 7.60218 19.4906 8 19.4906H26C26.3978 19.4906 26.7794 19.3326 27.0607 19.0513C27.342 18.77 27.5 18.3884 27.5 17.9906V6C27.5 5.60218 27.342 5.22064 27.0607 4.93934C26.7794 4.65804 26.3978 4.5 26 4.5V4.5ZM17.75 16.5H16.25C16.0511 16.5 15.8603 16.421 15.7197 16.2803C15.579 16.1397 15.5 15.9489 15.5 15.75C15.5 15.5511 15.579 15.3603 15.7197 15.2197C15.8603 15.079 16.0511 15 16.25 15H17.75C17.9489 15 18.1397 15.079 18.2803 15.2197C18.421 15.3603 18.5 15.5511 18.5 15.75C18.5 15.9489 18.421 16.1397 18.2803 16.2803C18.1397 16.421 17.9489 16.5 17.75 16.5ZM23.75 16.5H20.75C20.5511 16.5 20.3603 16.421 20.2197 16.2803C20.079 16.1397 20 15.9489 20 15.75C20 15.5511 20.079 15.3603 20.2197 15.2197C20.3603 15.079 20.5511 15 20.75 15H23.75C23.9489 15 24.1397 15.079 24.2803 15.2197C24.421 15.3603 24.5 15.5511 24.5 15.75C24.5 15.9489 24.421 16.1397 24.2803 16.2803C24.1397 16.421 23.9489 16.5 23.75 16.5ZM8 8.33437V6H26V8.33437H8Z" fill="#474747"/>
</svg>
