<svg width="20" height="21" viewBox="0 0 16 17" fill="none" xmlns="http://www.w3.org/2000/svg">
<path d="M14.25 0.625H1.75C1.41848 0.625 1.10054 0.756696 0.866116 0.991116C0.631696 1.22554 0.5 1.54348 0.5 1.875V6.46094C0.5 13.4453 6.42188 15.7656 7.60938 16.1563C7.8631 16.2397 8.1369 16.2397 8.39062 16.1563C9.57812 15.7656 15.5 13.4453 15.5 6.46094V1.875C15.5 1.54348 15.3683 1.22554 15.1339 0.991116C14.8995 0.756696 14.5815 0.625 14.25 0.625V0.625ZM8 14.9688C7.00781 14.6406 2.35156 12.8125 1.80469 7.5H8V1.875H14.25V6.46094C14.2519 6.80806 14.2336 7.15499 14.1953 7.5H8V14.9688Z" fill="white"/>
</svg>
