<svg width="36" height="38" viewBox="0 0 36 38" fill="none" xmlns="http://www.w3.org/2000/svg">
<path d="M33 0.5H3C2.20435 0.5 1.44129 0.81607 0.87868 1.37868C0.31607 1.94129 0 2.70435 0 3.5V14.5062C0 31.2687 14.2125 36.8375 17.0625 37.775C17.6714 37.9753 18.3286 37.9753 18.9375 37.775C21.7875 36.8375 36 31.2687 36 14.5062V3.5C36 2.70435 35.6839 1.94129 35.1213 1.37868C34.5587 0.81607 33.7956 0.5 33 0.5V0.5ZM18 34.925C15.6188 34.1375 4.44375 29.75 3.13125 17H18V3.5H33V14.5062C33.0045 15.3393 32.9607 16.172 32.8688 17H18V34.925Z" fill="#1733B6"/>
</svg>
